<?xml version="1.0" encoding="UTF-8" standalone="no"?>
<!-- Created with Inkscape (http://www.inkscape.org/) -->

<svg
   width="512"
   height="512"
   viewBox="0 0 512 512"
   version="1.1"
   id="svg5"
   inkscape:version="1.2.2 (b0a8486541, 2022-12-01)"
   sodipodi:docname="advanced.svg"
   xml:space="preserve"
   xmlns:inkscape="http://www.inkscape.org/namespaces/inkscape"
   xmlns:sodipodi="http://sodipodi.sourceforge.net/DTD/sodipodi-0.dtd"
   xmlns="http://www.w3.org/2000/svg"
   xmlns:svg="http://www.w3.org/2000/svg"><sodipodi:namedview
     id="namedview7"
     pagecolor="#505050"
     bordercolor="#eeeeee"
     borderopacity="1"
     inkscape:showpageshadow="0"
     inkscape:pageopacity="0"
     inkscape:pagecheckerboard="0"
     inkscape:deskcolor="#505050"
     inkscape:document-units="px"
     showgrid="false"
     inkscape:zoom="0.93607327"
     inkscape:cx="235.55848"
     inkscape:cy="268.67555"
     inkscape:window-width="1904"
     inkscape:window-height="993"
     inkscape:window-x="8"
     inkscape:window-y="35"
     inkscape:window-maximized="1"
     inkscape:current-layer="layer1" /><defs
     id="defs2" /><g
     inkscape:label="Layer 1"
     inkscape:groupmode="layer"
     id="layer1"><circle
       style="fill:#f2f6ff;fill-opacity:1;stroke:none;stroke-width:80;stroke-linecap:round;stroke-linejoin:round"
       id="path1297"
       cx="256"
       cy="256"
       r="180" /><path
       d="m 256,176 a 80,80 0 0 0 -80,80 80,80 0 0 0 80,80 80,80 0 0 0 80,-80 80,80 0 0 0 -80,-80 m 0,16 a 64,64 0 0 1 64,64 64,64 0 0 1 -64,64 z"
       id="path1270"
       style="stroke-width:8;fill:#16171a;fill-opacity:1" /><path
       d="m 86,320 a 64,64 0 0 1 -64,-64 64,64 0 0 1 64,-64 64,64 0 0 1 64,64 64,64 0 0 1 -64,64 m 0,-144 a 80,80 0 0 0 -80,80 80,80 0 0 0 80,80 80,80 0 0 0 80,-80 80,80 0 0 0 -80,-80 z"
       id="path1279"
       style="stroke-width:8;fill:#16171a;fill-opacity:1" /><path
       d="m 426,176 a 80,80 0 0 0 -80,80 80,80 0 0 0 80,80 80,80 0 0 0 80,-80 80,80 0 0 0 -80,-80 z"
       id="path1288"
       style="stroke-width:8;fill:#16171a;fill-opacity:1" /></g></svg>
