<?xml version="1.0" encoding="UTF-8" standalone="no"?>
<!-- Created with Inkscape (http://www.inkscape.org/) -->

<svg
   width="512"
   height="512"
   viewBox="0 0 512 512"
   version="1.1"
   id="svg5"
   inkscape:version="1.2.2 (b0a8486541, 2022-12-01)"
   sodipodi:docname="all_together_darkmode.svg"
   xml:space="preserve"
   xmlns:inkscape="http://www.inkscape.org/namespaces/inkscape"
   xmlns:sodipodi="http://sodipodi.sourceforge.net/DTD/sodipodi-0.dtd"
   xmlns="http://www.w3.org/2000/svg"
   xmlns:svg="http://www.w3.org/2000/svg"><sodipodi:namedview
     id="namedview7"
     pagecolor="#505050"
     bordercolor="#eeeeee"
     borderopacity="1"
     inkscape:showpageshadow="0"
     inkscape:pageopacity="0"
     inkscape:pagecheckerboard="0"
     inkscape:deskcolor="#505050"
     inkscape:document-units="px"
     showgrid="false"
     inkscape:zoom="0.46803664"
     inkscape:cx="199.77069"
     inkscape:cy="259.59506"
     inkscape:window-width="948"
     inkscape:window-height="493"
     inkscape:window-x="964"
     inkscape:window-y="535"
     inkscape:window-maximized="1"
     inkscape:current-layer="layer1" /><defs
     id="defs2" /><g
     inkscape:label="Layer 1"
     inkscape:groupmode="layer"
     id="layer1"><circle
       style="fill:#26282d;fill-opacity:1;stroke:none;stroke-width:80;stroke-linecap:round;stroke-linejoin:round"
       id="circle1243"
       cx="76.811432"
       cy="99.377388"
       r="50" /><circle
       style="fill:#26282d;fill-opacity:1;stroke:none;stroke-width:80;stroke-linecap:round;stroke-linejoin:round"
       id="path929"
       cx="324.68286"
       cy="341.23871"
       r="150" /><path
       d="m 101.11,325.80024 v -16 h 16 v -8 c 0,-8.88 7.2,-16 16,-16 h 48 v 56 l 20,-12 20,12 v -56 h 8 c 8.4,0 16,7.6 16,16 v 128 c 0,8.4 -7.6,16 -16,16 h -96 c -8.4,0 -16,-7.6 -16,-16 v -8 h -16 v -16 h 16 v -32 h -16 v -16 h 16 v -32 h -16 m 32,32 h -16 v 16 h 16 v -16 m 0,-32 v -16 h -16 v 16 h 16 m 0,96 v -16 h -16 v 16 z"
       id="path179"
       style="stroke-width:8;fill:#f2f6ff;fill-opacity:1" /><path
       d="m 197.34626,82.452949 -95.99999,96.000001 -44.000002,-44 11.28,-11.28 32.720002,32.64 84.71999,-84.640001 z"
       id="path305"
       style="stroke-width:8;fill:#f2f6ff;fill-opacity:1" /><path
       d="m 452.22118,252.70901 h -112 v -88 h 112 m -24,-56 v 16 h -64 v -16 h -16 v 16 h -8 c -8.88,0 -16,7.12 -16,16 v 112 a 16,16 0 0 0 16,16 h 112 a 16,16 0 0 0 16,-16 v -112 c 0,-8.88 -7.2,-16 -16,-16 h -8 v -16 m -8,88 h -40 v 40 h 40 z"
       id="path314"
       style="fill:#f2f6ff;fill-opacity:1;stroke-width:8" /></g></svg>
