<?xml version="1.0" encoding="UTF-8" standalone="no"?>
<svg
   viewBox="0 0 512 512"
   version="1.1"
   id="svg1593"
   sodipodi:docname="oss_darkmode.svg"
   width="512"
   height="512"
   xml:space="preserve"
   inkscape:version="1.2.2 (b0a8486541, 2022-12-01)"
   xmlns:inkscape="http://www.inkscape.org/namespaces/inkscape"
   xmlns:sodipodi="http://sodipodi.sourceforge.net/DTD/sodipodi-0.dtd"
   xmlns="http://www.w3.org/2000/svg"
   xmlns:svg="http://www.w3.org/2000/svg"><defs
     id="defs1597" /><sodipodi:namedview
     id="namedview1595"
     pagecolor="#505050"
     bordercolor="#eeeeee"
     borderopacity="1"
     inkscape:showpageshadow="0"
     inkscape:pageopacity="0"
     inkscape:pagecheckerboard="0"
     inkscape:deskcolor="#505050"
     showgrid="false"
     inkscape:zoom="0.48372397"
     inkscape:cx="304.92597"
     inkscape:cy="-13.437416"
     inkscape:window-width="948"
     inkscape:window-height="993"
     inkscape:window-x="964"
     inkscape:window-y="35"
     inkscape:window-maximized="1"
     inkscape:current-layer="svg1593" /><circle
     style="fill:#16171a;fill-opacity:1;stroke-width:124.483;stroke-linecap:round;stroke-linejoin:round"
     id="circle2224"
     cx="188.44164"
     cy="328.58072"
     r="161.58156" /><circle
     style="fill:#16171a;fill-opacity:1;stroke-width:80;stroke-linecap:round;stroke-linejoin:round"
     id="path2222"
     cx="369.69949"
     cy="113.367"
     r="103.84206" /><path
     d="m 296.98959,372.244 c -0.72,0 -1.56,0 -2.28,0 -1.44,-0.6 -2.64,-1.80012 -3.12,-3.24012 l -26.64073,-69.60171 c -1.08,-2.88 0.36,-6.12 3.12012,-7.32012 8.52024,-3.12001 15.36036,-9.84025 18.96049,-17.88037 7.68012,-17.16049 0,-37.20098 -17.16049,-44.88122 -17.16037,-7.68012 -37.20086,0 -44.8811,16.92049 -3.60012,8.52024 -3.84012,18.00048 -0.6,26.28061 3.60012,8.88024 10.68024,15.72036 19.68049,19.08049 2.88012,1.08 4.44012,4.32012 3.36012,7.32012 l -27.36073,69.60171 c -0.48,1.44 -1.56,2.64012 -3,3.24012 -1.44012,0.48 -3.00012,0.48 -4.32012,0 -61.80159,-23.88061 -92.64232,-93.36232 -68.76183,-155.16378 23.88061,-61.80159 93.36244,-92.64232 155.1639,-68.76183 29.64073,11.52036 53.52134,34.20097 66.48159,63.2417 13.08036,29.16073 13.92036,62.16147 2.40012,91.80208 -12.12037,31.92085 -37.20098,57.36146 -69.00183,69.36183 -0.96,0 -1.32,0 -2.04,0 M 256.06873,151.31851 c -59.64158,-1.56 -109.2028,45.60122 -110.7628,105.24268 -1.08,44.64098 25.32061,85.32208 66.60171,102.48244 l 22.68048,-58.80146 c -21.96048,-12.00025 -30.24073,-39.36086 -18.36048,-61.32147 11.88036,-21.96048 39.36109,-30.12073 61.32158,-18.36036 21.96049,11.88024 30.24061,39.36097 18.36037,61.32146 -4.2,7.80024 -10.56013,14.16037 -18.36037,18.36037 l 22.68049,59.16146 c 26.16061,-11.76024 46.6811,-33.24085 57.12146,-60.00146 22.08049,-55.44134 -4.80012,-118.20293 -60.24158,-140.40342 -13.08025,-5.16012 -27.00049,-7.80024 -41.04086,-7.68024 z"
     id="path2213"
     style="fill:#f2f6ff;fill-opacity:1;stroke-width:12.0004" /></svg>
